<svg width="20" height="21" viewBox="0 0 20 21" fill="none" xmlns="http://www.w3.org/2000/svg">
<path d="M6.87535 4.875H15.0003C15.1661 4.875 15.3251 4.94085 15.4423 5.05806C15.5595 5.17527 15.6253 5.33424 15.6253 5.5V13.625C15.6253 13.7908 15.5595 13.9498 15.4423 14.0669C15.3251 14.1842 15.1661 14.25 15.0003 14.25C14.8346 14.25 14.6756 14.1842 14.5584 14.0669C14.4412 13.9498 14.3753 13.7908 14.3753 13.625V7.00859L5.44253 15.9422C5.32526 16.0594 5.1662 16.1253 5.00035 16.1253C4.83449 16.1253 4.67543 16.0594 4.55816 15.9422C4.44088 15.8249 4.375 15.6658 4.375 15.5C4.375 15.3342 4.44088 15.1751 4.55816 15.0578L13.4917 6.125H6.87535C6.70958 6.125 6.55062 6.05916 6.43341 5.94194C6.31619 5.82473 6.25035 5.66576 6.25035 5.5C6.25035 5.33424 6.31619 5.17527 6.43341 5.05806C6.55062 4.94085 6.70958 4.875 6.87535 4.875Z" fill="#EEEBE5"/>
</svg>
