<svg width="32" height="32" viewBox="0 0 32 32" fill="none" xmlns="http://www.w3.org/2000/svg">
<rect width="32" height="32" fill="#E9E9E9"/>
<g clip-path="url(#clip0_2731_896)">
<path d="M13.5657 4.2598H4.14136V13.6883H13.5657V4.2598Z" fill="#142927"/>
<mask id="mask0_2731_896" style="mask-type:luminance" maskUnits="userSpaceOnUse" x="8" y="8" width="20" height="20">
<path d="M8.85425 8.85593V27.831H27.7029V15.2697C27.7029 13.7204 27.1431 12.2226 26.1243 11.0553C24.9061 9.65846 23.1452 8.85808 21.2921 8.85808H8.85425V8.85593Z" fill="white"/>
</mask>
<g mask="url(#mask0_2731_896)">
<path d="M5.91982 4.2876C6.2587 3.49581 6.72413 2.77054 7.32682 2.15255C7.58849 1.88648 7.9767 1.43372 8.33276 1.31141C9.19924 1.00886 9.03197 2.19332 9.04698 2.67827C9.0877 4.06229 10.143 5.13732 11.3291 5.71239C12.9656 6.50418 14.838 6.34754 16.5881 6.62864C18.1861 6.88613 19.6638 7.60496 20.8692 8.68857C22.0575 9.75718 22.9625 11.1326 23.443 12.6561C23.7304 13.5638 23.8848 14.5058 24.0628 15.4392C24.2473 16.4026 24.5068 17.3425 24.7642 18.2888C25.028 19.263 25.2918 20.2371 25.5556 21.2113C25.813 22.1619 26.1305 23.1189 26.3128 24.0866C26.5058 25.1209 26.1969 25.9385 25.4184 26.6272C24.7728 27.1959 23.9964 27.6487 23.2628 28.0928C22.3169 28.6657 21.3411 29.1035 20.2772 29.4082C19.252 29.7021 18.2225 29.9682 17.2144 30.3223C15.2348 31.0196 13.3366 31.9294 11.55 33.0281C11.3419 33.1547 11.5328 33.483 11.7409 33.3564C13.5253 32.2599 15.4192 31.3479 17.3989 30.6591C19.3121 29.9918 21.3111 29.6592 23.0848 28.64C23.8655 28.1915 24.6569 27.7066 25.3712 27.1529C25.9417 26.7109 26.4672 26.1681 26.671 25.4557C26.9348 24.5287 26.5852 23.5545 26.3428 22.6619C26.0533 21.5976 25.7658 20.5311 25.4763 19.4668C25.191 18.4132 24.8758 17.364 24.6291 16.3018C24.3996 15.3147 24.2623 14.3084 24.0221 13.3256C23.6232 11.6927 22.851 10.1971 21.6971 8.96966C20.6075 7.80881 19.2156 6.92046 17.6799 6.48058C15.8053 5.94414 13.7613 6.25098 11.9253 5.56004C11.0266 5.22101 10.1387 4.60517 9.69685 3.7297C9.43733 3.21257 9.43733 2.72118 9.4416 2.15685C9.44375 1.7749 9.39657 1.39295 9.11561 1.10756C8.49575 0.480996 7.75149 1.22987 7.27963 1.6719C6.55254 2.35211 5.98416 3.18252 5.59166 4.09877C5.49729 4.31978 5.8233 4.51505 5.91982 4.28974" fill="#101010"/>
<path d="M6.63983 4.38644C7.18676 3.72769 8.14121 4.0281 8.69886 4.51304C9.28011 5.01944 9.65972 5.71253 10.2431 6.21679C11.2812 7.11587 12.6646 7.39267 13.9837 7.57721C16.9671 7.99563 20.4632 8.55784 22.1597 11.3881C22.8633 12.5619 23.0906 13.9201 23.2686 15.2569C23.496 16.9543 23.852 18.6322 24.3367 20.2716C24.5834 21.1063 24.8644 21.9324 25.1754 22.7435C25.4628 23.4967 25.9303 24.4966 25.3748 25.2348C24.9072 25.8528 23.9292 26.1939 23.2536 26.5265C22.4772 26.9085 21.6836 27.2604 20.8728 27.5651C19.987 27.8977 19.0841 28.1595 18.1639 28.3698C17.2353 28.5822 16.4181 28.8912 15.5816 29.344C15.1398 29.5843 14.6958 29.8203 14.2539 30.0649C13.9687 30.2237 13.8507 30.3331 13.7456 30.6378C13.5762 31.1335 12.9864 31.288 12.5424 31.5069C12.0662 31.7408 11.5922 31.9746 11.1182 32.2085C10.8995 32.3158 11.0903 32.6441 11.3091 32.5368C11.7273 32.3309 12.1477 32.1249 12.566 31.9167C12.9563 31.7236 13.4217 31.5626 13.7692 31.2987C14.0523 31.082 14.003 30.8524 14.1853 30.5928C14.4234 30.258 15.084 30.0478 15.4464 29.8504C16.3044 29.3826 17.1301 28.9985 18.0889 28.7774C19.0111 28.565 19.9184 28.3204 20.8085 27.9943C21.6257 27.696 22.4236 27.3505 23.2064 26.9729C23.9228 26.6274 24.7357 26.2969 25.3577 25.7927C26.7111 24.6962 25.5807 22.8208 25.1411 21.5462C24.5276 19.7588 24.0665 17.9156 23.7662 16.0487C23.5281 14.5724 23.4145 13.0811 22.7625 11.7121C21.3661 8.77884 18.0009 7.73385 15.0153 7.33688C13.1236 7.08368 11.2147 6.88198 9.91497 5.322C9.40235 4.70831 8.9219 4.01308 8.13262 3.74271C7.51706 3.53028 6.80498 3.5968 6.36958 4.12037C6.21515 4.30705 6.48111 4.57527 6.63768 4.38859" fill="#101010"/>
<path d="M6.83248 5.77036C8.30381 4.23398 9.44914 6.3862 10.483 7.28957C11.5382 8.21223 12.8766 8.79161 14.2707 8.92463C15.1544 9.00834 16.0466 8.88387 16.9303 8.99329C17.6338 9.08128 18.318 9.30875 18.9421 9.64564C20.169 10.3065 21.177 11.373 21.7604 12.639C22.4918 14.2268 22.3138 15.9993 22.6419 17.6794C22.9808 19.4132 23.7401 21.059 24.3749 22.6983C24.5337 23.1082 24.7782 23.5824 24.7332 24.033C24.6817 24.5287 24.2999 24.8356 23.9031 25.0909C23.176 25.5608 22.3781 25.917 21.576 26.2389C19.8987 26.9105 18.1979 27.5242 16.5077 28.1636C14.6568 28.8653 12.8015 29.7945 10.7704 29.5541C9.86312 29.4468 8.93009 29.2279 8.10221 28.8331C7.30648 28.4512 6.21691 27.7259 6.2212 26.7367C6.2212 26.4921 5.84372 26.4921 5.84157 26.7367C5.83514 28.2624 7.70542 29.1829 8.94726 29.5606C9.82663 29.8266 10.7725 29.9961 11.6927 29.9854C12.6428 29.9725 13.5393 29.685 14.4208 29.3567C16.3447 28.6379 18.2644 27.9019 20.1861 27.1744C21.0441 26.8504 21.9063 26.535 22.7385 26.1488C23.4463 25.8205 24.3149 25.4407 24.8104 24.8077C25.3337 24.1382 25.0399 23.3957 24.7674 22.6855C24.3943 21.7156 23.9953 20.7564 23.6479 19.778C23.294 18.7845 22.9937 17.7824 22.8757 16.731C22.7706 15.7825 22.7471 14.8234 22.554 13.8857C21.9492 10.9481 19.3089 8.65428 16.2997 8.57272C15.1544 8.5427 14.0584 8.62853 12.9495 8.2702C11.9693 7.95261 11.0663 7.39042 10.3521 6.65013C9.79019 6.06647 9.30116 5.31545 8.5419 4.96998C7.78692 4.62666 7.10058 4.94423 6.56008 5.50643C6.39064 5.68238 6.65875 5.9506 6.82819 5.77465" fill="#101010"/>
<path d="M6.69749 6.99343C8.17528 6.65655 9.50504 7.55563 10.6247 8.40751C11.6434 9.17999 12.6408 9.92029 13.9169 10.1842C15.2296 10.4546 16.6022 10.3516 17.8806 10.8065C19.0903 11.2356 20.1605 12.0768 20.7868 13.2033C21.501 14.4865 21.7477 15.9671 22.0029 17.394C22.1144 18.0163 22.2195 18.6407 22.3697 19.2544C22.5391 19.9475 22.8222 20.5418 23.1525 21.1684C23.5258 21.8787 23.6072 22.5353 23.3992 23.312C23.3005 23.6768 23.1869 24.0974 23.0046 24.43C22.7729 24.8506 22.3182 24.9836 21.8957 25.1402C20.4501 25.6745 19.0023 26.2024 17.5567 26.7346C15.991 27.3096 14.3931 27.9898 12.7459 28.2795C11.9201 28.4254 11.0386 28.4211 10.2021 28.4469C9.34204 28.4726 8.50127 28.4061 7.71199 28.0413C7.49107 27.9405 7.29803 28.2666 7.5211 28.3696C8.87018 28.9919 10.2965 28.8052 11.7335 28.7516C13.3829 28.6915 14.9572 28.0843 16.495 27.5264C18.1208 26.9362 19.7423 26.3354 21.3659 25.7389C21.9322 25.5308 22.6957 25.3698 23.1289 24.9128C23.5794 24.4343 23.7853 23.5159 23.8775 22.8893C23.974 22.2241 23.8239 21.6383 23.5172 21.0504C23.1354 20.3166 22.833 19.6278 22.6592 18.8145C22.3375 17.3124 22.1831 15.7653 21.6812 14.3062C21.2415 13.0316 20.5316 11.9373 19.412 11.1669C18.2602 10.3752 16.9626 10.1391 15.5964 10.0168C14.6419 9.93099 13.6767 9.84304 12.8038 9.41816C12.0831 9.06841 11.4525 8.56412 10.8198 8.08347C9.60588 7.16295 8.18813 6.26816 6.59882 6.63295C6.36075 6.68659 6.46155 7.05352 6.69963 6.99773" fill="#101010"/>
<path d="M5.68661 9.02969C8.31831 9.40735 10.7934 10.3879 13.3093 11.1948C14.5554 11.5939 15.8144 11.9415 17.1056 12.1582C18.3024 12.3599 20.1255 12.6561 20.2071 14.201C20.2199 14.4434 20.5996 14.4456 20.5867 14.201C20.5266 13.068 19.5743 12.3578 18.5577 12.0617C17.8392 11.8514 17.0842 11.787 16.3507 11.6325C15.6407 11.4823 14.9372 11.2956 14.2423 11.0875C11.4305 10.2463 8.7065 9.08331 5.78527 8.66274C5.5472 8.62841 5.44425 8.99321 5.68447 9.02754" fill="#101010"/>
<path d="M6.97545 10.5917C9.3219 11.1946 11.6983 11.7268 14.0212 12.4156C14.8319 12.6559 15.6384 12.9284 16.447 13.1795C17.1698 13.4026 18.1521 13.6515 18.6218 14.2974C18.7634 14.4927 19.0937 14.3038 18.95 14.1064C18.5339 13.5335 17.8325 13.2546 17.1848 13.0228C16.3504 12.7246 15.4904 12.5078 14.6539 12.2182C13.4635 11.8083 12.2152 11.5444 10.9949 11.2311C9.68865 10.8964 8.38244 10.5595 7.07626 10.2247C6.84033 10.1647 6.73953 10.5295 6.97545 10.5895" fill="#101010"/>
<path d="M6.97304 12.0424C9.84495 12.4973 12.6718 13.1818 15.4322 14.0938C15.6638 14.171 15.7646 13.8041 15.533 13.729C12.7726 12.817 9.94575 12.1304 7.07385 11.6776C6.83577 11.639 6.73282 12.0059 6.97304 12.0424Z" fill="#101010"/>
<path d="M28.5889 20.7649C28.0463 18.0505 27.3556 15.3469 26.1589 12.8406C25.8521 12.1969 25.5133 11.5703 25.14 10.9652C24.8055 10.4223 23.9539 9.42452 24.7132 8.88167C25.2516 8.49755 26.1417 8.46965 26.768 8.40745C27.583 8.32805 28.4002 8.32805 29.2152 8.39028C29.4576 8.40957 29.4576 8.02978 29.2152 8.01047C28.3358 7.94395 27.4564 7.95039 26.5792 8.04695C25.9486 8.11774 25.1915 8.16712 24.6275 8.48681C23.2676 9.2636 24.621 10.8043 25.1208 11.6712C26.7465 14.5036 27.5873 17.6858 28.2243 20.8658C28.2715 21.104 28.6383 21.0031 28.5889 20.7649Z" fill="#101010"/>
<path d="M31.3044 19.8103C30.0861 18.3919 29.9103 16.3985 28.9151 14.8428C28.4496 14.1154 27.8748 13.4674 27.2657 12.8601C26.9375 12.5318 26.5472 12.2335 26.2662 11.8623C25.908 11.3881 25.9595 10.8087 26.3198 10.3474C26.9054 9.59852 28.025 9.79593 28.8464 9.49337C29.8909 9.10713 30.9076 8.87755 32.0165 8.75096C34.2149 8.49989 36.4112 8.75523 38.4488 9.6436C39.4997 10.1007 40.4756 10.6586 41.5802 10.9847C42.7556 11.3302 43.9481 11.622 45.1322 11.9374C45.3682 11.9997 45.4686 11.6349 45.2327 11.5705C44.0489 11.2551 42.8564 10.9632 41.681 10.6178C40.5528 10.2852 39.5598 9.70152 38.4831 9.24662C36.3318 8.33682 34.0476 8.10723 31.7398 8.40332C31.2014 8.47199 30.6652 8.55998 30.1333 8.6694C29.595 8.77882 29.1124 9.00202 28.5955 9.18011C27.7697 9.46335 26.8303 9.27452 26.1654 9.944C25.6464 10.4633 25.4512 11.3001 25.8544 11.9439C26.1011 12.3387 26.5 12.6369 26.8281 12.9588C27.2142 13.3365 27.5917 13.7249 27.9349 14.1411C28.7027 15.0681 29.196 16.1024 29.5971 17.2289C29.9574 18.2439 30.3242 19.2459 31.0363 20.0742C31.195 20.2587 31.4631 19.9905 31.3044 19.806" fill="#101010"/>
<path d="M17.254 32.6997C17.7988 31.5259 19.2959 31.2856 20.4305 31.0367C21.8096 30.7363 23.1802 30.4745 24.5164 30.0111C26.095 29.4639 28.4392 29.245 29.2328 27.5284C29.3336 27.3074 29.0076 27.1164 28.9068 27.3374C28.4714 28.2816 27.4591 28.7 26.5261 29.0068C25.5073 29.3416 24.4714 29.6698 23.444 29.966C22.0992 30.3544 20.7093 30.5496 19.3559 30.9015C18.3972 31.1526 17.3741 31.5539 16.9301 32.5087C16.8272 32.7276 17.1554 32.9207 17.2583 32.6997" fill="#101010"/>
<path d="M48.6565 29.0389C47.0135 29.8757 44.9414 29.5281 43.1957 29.2492C42.2648 29.1011 41.3318 28.8822 40.4868 28.4574C39.7468 28.0861 39.1141 27.5518 38.4599 27.0497C37.8508 26.5841 37.2095 26.1421 36.4695 25.9103C35.5923 25.6357 34.6228 25.6271 33.7156 25.5498C31.6994 25.3782 29.679 25.2516 27.6565 25.361C27.4141 25.3739 27.4119 25.7537 27.6565 25.7408C29.2672 25.6528 30.8779 25.7151 32.4866 25.831C33.3037 25.891 34.1231 25.9618 34.9381 26.0369C35.7467 26.112 36.4974 26.2451 37.2116 26.6528C38.3505 27.3029 39.2535 28.2964 40.4482 28.8586C41.6921 29.4444 43.0648 29.6354 44.4182 29.7899C45.9132 29.9594 47.4659 30.0731 48.8493 29.3672C49.0661 29.2556 48.8753 28.9294 48.6585 29.0389" fill="#101010"/>
<path d="M20.2134 14.3728C20.2713 15.1753 20.4965 15.9371 20.7282 16.7031C20.9877 17.5657 21.2494 18.4283 21.5089 19.2931C21.9421 20.7285 22.8794 22.7992 21.7212 24.1318C21.1721 24.7626 20.1791 24.8935 19.4156 25.1102C18.564 25.3527 17.7126 25.5952 16.8611 25.8398C15.2181 26.3076 13.5301 26.9556 11.8272 27.1573C9.99978 27.3762 8.14881 26.9213 6.60239 25.9321C6.39648 25.8012 6.20559 26.1273 6.4115 26.2582C7.77989 27.1337 9.38209 27.6079 11.01 27.5886C12.8223 27.5672 14.5983 26.8784 16.3227 26.387C17.2664 26.1187 18.208 25.8484 19.1517 25.5802C19.941 25.3549 20.8826 25.2175 21.5754 24.754C22.8601 23.8979 22.74 22.192 22.3797 20.8874C22.0859 19.8231 21.747 18.7695 21.4274 17.7116C21.0992 16.6215 20.6724 15.5165 20.5909 14.3728C20.5737 14.1303 20.1941 14.1282 20.2113 14.3728" fill="#101010"/>
<path d="M6.92485 24.7048C8.40906 25.6683 10.1764 25.9365 11.9137 26.0052C12.8424 26.0417 13.7883 26.0609 14.7084 25.9129C15.6178 25.7649 16.3921 25.3872 17.1771 24.928C17.5739 24.6962 17.9707 24.4581 18.3975 24.2864C18.8801 24.0933 19.382 24.0289 19.8924 23.9474C20.6238 23.8294 21.441 23.5998 21.8464 22.9152C22.2453 22.2415 21.9364 21.5227 21.5418 20.9283C21.07 20.2159 20.701 19.5636 20.5058 18.7203C20.1305 17.1174 20.1541 15.3107 18.9144 14.0704C18.7428 13.8987 18.4747 14.1648 18.6463 14.3386C19.6736 15.3643 19.768 16.862 20.0147 18.2139C20.1327 18.8555 20.2849 19.4949 20.5659 20.085C20.8791 20.7395 21.5246 21.3038 21.6383 22.0377C21.8078 23.1341 20.5209 23.4689 19.6994 23.5933C18.8844 23.7178 18.1809 23.9195 17.4581 24.325C16.7481 24.722 16.0747 25.1769 15.2832 25.4001C14.3974 25.649 13.4665 25.6619 12.5528 25.6447C10.6719 25.6125 8.72862 25.4258 7.11145 24.3787C6.90555 24.2457 6.7168 24.5739 6.92056 24.707" fill="#101010"/>
<path d="M15.4335 14.0959C16.0791 14.2998 16.789 14.4628 17.351 14.8598C18.0309 15.3405 18.3312 16.1516 18.5993 16.909C19.1441 18.4433 19.839 19.9174 20.4095 21.4409C20.5575 21.8357 20.832 22.4795 20.2315 22.6211C19.899 22.7005 19.5108 22.5803 19.1741 22.5631C18.5542 22.531 17.943 22.8099 17.3896 23.0588C15.9869 23.6918 14.6464 24.6875 13.0506 24.7196C11.2125 24.7561 9.54812 23.7111 7.70145 23.7562C7.45694 23.7626 7.45694 24.1424 7.70145 24.136C9.5696 24.0888 11.2618 25.1681 13.13 25.0973C14.7965 25.0351 16.1756 24.0051 17.6491 23.3549C18.0352 23.1854 18.477 22.988 18.9039 22.9451C19.2835 22.9043 19.6631 23.0245 20.0428 23.0138C20.5854 23.0009 21.1109 22.6511 21.0122 22.0503C20.9457 21.6576 20.7462 21.2585 20.6025 20.8894C20.4181 20.4195 20.2229 19.9539 20.0277 19.4861C19.6674 18.6235 19.3049 17.7652 18.9918 16.8854C18.7044 16.0786 18.402 15.2246 17.7178 14.6645C17.1 14.1581 16.2807 13.965 15.5343 13.729C15.3006 13.656 15.2019 14.0208 15.4335 14.0938" fill="#101010"/>
<path d="M8.03173 14.0423C7.89446 15.2761 8.74168 16.2717 9.1127 17.3833C9.35722 18.1171 9.25857 18.7694 8.8725 19.4389C8.44998 20.1706 7.95452 20.8659 7.49123 21.5718C7.35611 21.7757 7.68427 21.9666 7.81724 21.7628C8.29125 21.0396 8.8103 20.3272 9.23282 19.5719C9.56529 18.9775 9.7197 18.351 9.58457 17.6772C9.33362 16.4241 8.26339 15.3769 8.41137 14.0423C8.43708 13.7998 8.05961 13.802 8.03173 14.0423Z" fill="#101010"/>
<path d="M8.07618 13.0575C8.51802 13.7849 8.95987 14.5144 9.39955 15.244C9.83277 15.9607 10.3797 16.6838 10.6843 17.467C11.0554 18.4219 10.4484 19.0742 9.83493 19.733C9.25157 20.3595 8.66816 20.9861 8.08476 21.6127C7.91961 21.7908 8.18556 22.0611 8.35287 21.8809C9.00917 21.1771 9.66978 20.4754 10.3218 19.7673C10.8323 19.2115 11.3041 18.585 11.1712 17.7867C11.0318 16.9542 10.4205 16.1967 9.99366 15.4908C9.46387 14.6174 8.93412 13.742 8.40433 12.8687C8.27782 12.6605 7.94964 12.8515 8.07618 13.0596" fill="#101010"/>
<path d="M8.61757 12.9435C9.55056 13.4156 10.3849 14.0486 11.0712 14.8382C11.423 15.2438 11.7554 15.6922 11.9806 16.1815C12.2959 16.8703 12.2401 17.5162 11.9399 18.1964C11.1077 20.0761 9.66421 21.6403 7.89689 22.6789C7.6867 22.8033 7.87759 23.1295 8.08778 23.0072C9.99883 21.8849 11.7769 20.0288 12.4696 17.8809C12.8278 16.7651 12.2659 15.7309 11.586 14.8704C10.8374 13.922 9.88513 13.1624 8.81058 12.6173C8.59397 12.5079 8.40092 12.8341 8.61968 12.9457" fill="#101010"/>
<path d="M13.171 18.6856C13.7329 17.2287 13.4519 15.5142 12.579 14.2396C12.5254 14.334 12.4696 14.4306 12.416 14.525C13.2524 14.5465 14.0568 14.7696 14.8546 15.0035C15.2386 15.1151 15.6246 15.2353 15.9657 15.4477C16.371 15.7009 16.6649 16.0828 16.9394 16.4669C17.3684 17.0677 17.7652 17.6964 18.0826 18.3659C18.4043 19.044 18.9255 20.2456 18.5202 20.973C18.2327 21.488 17.4477 21.8034 16.9652 22.1103C16.3174 22.5223 15.616 22.8463 14.8847 23.0802C14.1297 23.3205 13.3425 23.4643 12.5511 23.5008C11.9763 23.5265 10.5607 23.6617 10.5285 22.8206C10.5114 22.3721 10.9725 21.9901 11.2556 21.6962C11.5216 21.4236 11.7683 21.1383 11.9956 20.8336C12.491 20.1748 12.875 19.4495 13.1688 18.6814C13.2568 18.4539 12.89 18.3552 12.8042 18.5805C12.446 19.5204 11.927 20.3937 11.2535 21.1426C10.8181 21.6275 10.0545 22.1897 10.1382 22.93C10.2175 23.6231 10.9425 23.8183 11.5302 23.8655C12.4288 23.9385 13.349 23.8462 14.2262 23.6467C15.1077 23.4471 15.9635 23.1167 16.7485 22.6746C17.0831 22.4858 17.3941 22.2648 17.7244 22.0674C18.0418 21.8764 18.3807 21.6983 18.6402 21.4279C19.1979 20.8421 19.0306 19.9345 18.8247 19.2307C18.5673 18.3552 18.1148 17.5377 17.615 16.778C17.0852 15.9755 16.5426 15.2224 15.6225 14.8533C14.6273 14.4542 13.4863 14.1645 12.4138 14.1366C12.2766 14.1323 12.1693 14.3018 12.2508 14.422C13.0723 15.6236 13.334 17.2029 12.8042 18.5762C12.7163 18.8036 13.083 18.9024 13.1688 18.6771" fill="#101010"/>
<path d="M14.9411 16.2717C15.6939 17.0635 16.5411 17.7308 17.0152 18.7458C17.279 19.3123 17.3691 19.9538 17.058 20.5204C16.8028 20.9839 16.3631 21.325 15.9277 21.6061C15.3336 21.9902 13.3583 23.1232 12.8971 22.0567C12.6461 21.4774 13.1266 20.8401 13.4033 20.3616C13.7036 19.8466 14.0381 19.338 14.2891 18.7951C14.5358 18.263 14.6001 17.7201 14.5122 17.1429C14.4628 16.821 14.3427 16.512 14.2977 16.1902C14.2569 15.8962 14.3727 15.7438 14.6001 15.9391C14.7202 16.0421 14.8296 16.158 14.9433 16.2674C15.1191 16.437 15.3872 16.1687 15.2114 15.9992C14.9154 15.716 14.45 15.128 14.051 15.6065C13.8794 15.8125 13.8858 16.0765 13.9373 16.3254C14.0253 16.7416 14.1625 17.1343 14.1754 17.5656C14.2033 18.4368 13.6628 19.1621 13.2424 19.8831C12.9186 20.4431 12.4381 21.0654 12.4553 21.7434C12.4681 22.3142 12.837 22.752 13.4033 22.8356C13.9824 22.9215 14.5872 22.6919 15.1105 22.4666C16.2151 21.9923 17.6157 21.1255 17.6414 19.7715C17.6715 18.1557 16.2087 17.0506 15.2092 15.9992C15.0419 15.8211 14.7738 16.0893 14.9411 16.2674" fill="#101010"/>
<path d="M15.5264 18.0183C15.7709 18.2415 15.8545 18.5998 15.9532 18.9067C16.0797 19.3015 16.247 19.6792 16.2406 20.104C16.2256 20.9215 15.4449 21.7348 14.5869 21.4344C14.3596 21.355 14.4132 21.1941 14.4583 21.0009C14.5011 20.8164 14.5526 20.6319 14.6062 20.4495C14.7178 20.0718 14.8422 19.6963 14.9451 19.3165C15.0395 18.9668 15.121 18.6063 15.1339 18.2436C15.1403 18.0612 15.1296 17.8788 15.1339 17.6965C15.1381 17.5784 15.1746 17.4518 15.1746 17.336C15.1746 17.3016 15.1789 17.336 15.1746 17.3317C15.1703 17.3274 15.151 17.3617 15.1103 17.3746C15.0588 17.3896 15.0245 17.3682 15.0245 17.3703C15.0245 17.3724 15.0009 17.3381 15.0309 17.3789C15.0738 17.4347 15.1103 17.4733 15.1575 17.542C15.2711 17.7051 15.3784 17.881 15.5264 18.0183C15.7065 18.1835 15.9747 17.9153 15.7944 17.7501C15.6465 17.6128 15.5478 17.4347 15.4299 17.2716C15.3247 17.1257 15.1596 16.9175 14.9558 17.0291C14.7349 17.1493 14.7564 17.5377 14.7521 17.7458C14.7478 17.954 14.7607 18.16 14.7435 18.3681C14.7242 18.6063 14.6727 18.8423 14.6127 19.074C14.4925 19.5504 14.3317 20.0139 14.1987 20.4838C14.0915 20.8615 13.8598 21.4301 14.2695 21.7005C14.6427 21.9472 15.1875 21.8979 15.58 21.7262C16.0304 21.5309 16.3586 21.1426 16.5173 20.6834C16.7167 20.1083 16.573 19.5397 16.3778 18.9882C16.2299 18.5655 16.1398 18.0655 15.7944 17.7501C15.6143 17.587 15.3462 17.8531 15.5264 18.0183Z" fill="#101010"/>
<path d="M15.4695 19.1129C15.4695 19.1129 15.4781 19.1301 15.4845 19.1387C15.4845 19.143 15.4738 19.0979 15.4802 19.1323C15.4866 19.1623 15.4974 19.1923 15.5038 19.2245C15.5081 19.2438 15.5102 19.261 15.5145 19.2803C15.5145 19.291 15.521 19.3318 15.5167 19.2996C15.5231 19.349 15.5274 19.3983 15.5317 19.4477C15.5467 19.643 15.551 19.8404 15.5446 20.0356C15.5446 20.0786 15.5403 20.1215 15.5381 20.1622C15.5381 20.1837 15.5338 20.2051 15.5317 20.2245C15.5317 20.2395 15.5231 20.2867 15.5296 20.2459C15.5252 20.2738 15.521 20.3039 15.5124 20.3317C15.5102 20.3425 15.5038 20.3554 15.5017 20.3682C15.4995 20.394 15.5231 20.3275 15.5038 20.3575C15.4202 20.4862 15.373 20.6407 15.2936 20.7716C15.2829 20.7909 15.27 20.8081 15.2593 20.8253C15.2636 20.8188 15.2786 20.8103 15.2679 20.8124C15.2593 20.8145 15.2443 20.821 15.2679 20.8167C15.2765 20.8167 15.3966 20.7824 15.403 20.7952C15.403 20.7909 15.3837 20.7888 15.3794 20.7888C15.3623 20.7824 15.3429 20.7824 15.3258 20.7802C15.2893 20.7738 15.255 20.7695 15.2185 20.7652C15.2078 20.7652 15.1435 20.7545 15.1671 20.7588C15.1456 20.7566 15.122 20.7523 15.1006 20.7459C15.0899 20.7437 15.0791 20.7373 15.0705 20.7373C15.0598 20.733 15.0598 20.7351 15.0749 20.7373C15.1006 20.7459 15.122 20.763 15.1371 20.7909C15.1456 20.8231 15.1542 20.8553 15.1628 20.8875C15.1607 20.8553 15.1456 20.9476 15.1585 20.9111C15.1607 20.9025 15.1628 20.8918 15.1649 20.8832C15.1713 20.8575 15.1778 20.8317 15.1842 20.8081C15.2035 20.733 15.225 20.66 15.2464 20.5849C15.3043 20.3897 15.3665 20.1944 15.4309 19.9991C15.4952 19.8017 15.5639 19.6065 15.6389 19.4133C15.6475 19.3919 15.6561 19.3726 15.6647 19.3511C15.684 19.3018 15.6647 19.3511 15.6754 19.3254C15.6904 19.2932 15.7033 19.261 15.7204 19.2288C15.7333 19.2052 15.7462 19.1816 15.759 19.1559C15.7633 19.1473 15.7741 19.1387 15.7762 19.1301C15.7655 19.1602 15.7548 19.1559 15.729 19.1752C15.8105 19.1129 15.8534 19.0121 15.7976 18.9155C15.7505 18.8361 15.6196 18.7846 15.5381 18.8469C15.4373 18.9241 15.388 19.0378 15.3387 19.1537C15.2636 19.3297 15.1993 19.5078 15.1371 19.688C15.0191 20.0271 14.9054 20.3704 14.8153 20.7159C14.8046 20.7588 14.7917 20.8038 14.7874 20.8489C14.7724 20.9884 14.8689 21.0742 14.9933 21.1064C15.0513 21.1214 15.1113 21.1278 15.1692 21.1343C15.1928 21.1364 15.2164 21.1407 15.24 21.1428C15.24 21.1428 15.2743 21.1471 15.2507 21.1428C15.2271 21.1385 15.2679 21.145 15.2721 21.1471C15.3773 21.1686 15.4588 21.1579 15.536 21.0763C15.6625 20.9454 15.729 20.748 15.8084 20.5871C15.8749 20.4498 15.9006 20.3231 15.9135 20.1708C15.9328 19.9369 15.9285 19.7009 15.9135 19.467C15.9006 19.2953 15.8985 19.0593 15.7976 18.9113C15.6604 18.7117 15.3322 18.9005 15.4695 19.1022" fill="#101010"/>
<path d="M7.58753 3.73152C7.81917 3.39893 8.08727 3.09637 8.40684 2.84317C8.65778 2.64361 8.92805 2.46337 9.23691 2.60714C9.47069 2.71657 9.58434 2.88179 9.74091 3.07277C10.1592 3.58346 10.6504 4.02764 11.2037 4.38598C12.3469 5.12627 13.7067 5.48033 15.0236 5.75499C16.4135 6.04467 17.8355 6.22062 19.1889 6.67123C20.701 7.17549 21.8956 8.07457 22.6699 9.48219C23.5128 11.0143 24.0469 12.7588 24.5938 14.4132C25.1515 16.0976 25.6426 17.8035 26.0651 19.5265C26.492 21.2646 26.9445 23.0563 27.1418 24.8373C27.337 26.6248 26.2046 28.0174 24.6024 28.674C23.7402 29.028 22.8265 29.1396 21.9128 29.2834C21.0055 29.425 20.1776 29.7018 19.3562 30.1116C17.4987 31.0365 15.6735 32.0343 13.8332 32.9956C13.6166 33.1093 13.8075 33.4354 14.0241 33.3218C15.8129 32.3862 17.5953 31.4292 19.3948 30.5129C20.2677 30.0687 21.1321 29.7833 22.0973 29.6332C22.9831 29.4958 23.8624 29.3757 24.701 29.0366C26.0523 28.4916 27.2684 27.3951 27.5086 25.8974C27.6437 25.0605 27.4293 24.1915 27.2791 23.3696C27.1076 22.4362 26.9167 21.5071 26.7043 20.5844C26.2689 18.6747 25.752 16.7864 25.1557 14.9217C24.5959 13.1729 24.0233 11.379 23.2211 9.72467C22.5348 8.31273 21.5117 7.23343 20.0661 6.60042C18.6612 5.98458 17.1256 5.77644 15.6306 5.48891C13.9298 5.16061 12.1195 4.74647 10.7704 3.5899C10.4337 3.30022 10.1549 2.96977 9.87177 2.63074C9.67229 2.39256 9.45137 2.17584 9.12753 2.14794C8.35538 2.08142 7.64973 2.97836 7.25937 3.53625C7.11996 3.73581 7.44812 3.92679 7.58753 3.72723" fill="#101010"/>
<path d="M6.31953 7.73166C8.33566 8.13933 10.3132 8.72302 12.2307 9.47402C12.458 9.56416 12.5567 9.19721 12.3315 9.10926C10.4161 8.35822 8.43862 7.77672 6.42248 7.36688C6.18441 7.31967 6.08145 7.68445 6.32167 7.73166" fill="#101010"/>
<path d="M22.3567 8.16052C23.3176 9.06389 23.723 10.3234 24.2291 11.5036C24.523 12.1924 24.9048 12.834 25.2286 13.5078C25.574 14.2266 25.8077 14.9862 26.0458 15.7458C26.4984 17.1985 27.041 18.6555 27.2963 20.1597C27.5686 21.7754 27.7188 23.417 27.9204 25.0435C27.9504 25.2816 28.33 25.2859 28.3 25.0435C28.0984 23.4148 27.944 21.7733 27.678 20.1532C27.4163 18.5546 26.8394 17.0118 26.3568 15.469C26.1273 14.7373 25.8914 14.0077 25.5568 13.3168C25.2329 12.643 24.8511 12.0015 24.5573 11.3127C24.0383 10.0981 23.6136 8.81926 22.627 7.89229C22.4489 7.72492 22.1808 7.99314 22.3588 8.16052" fill="#101010"/>
</g>
</g>
<defs>
<clipPath id="clip0_2731_896">
<rect width="24" height="24" fill="white" transform="translate(4 4)"/>
</clipPath>
</defs>
</svg>
