<svg width="173" height="80" viewBox="0 0 173 80" fill="none" xmlns="http://www.w3.org/2000/svg">
<path d="M80.9389 39.3298V38.8287C80.9389 37.204 81.2605 35.8167 81.909 34.6614C82.5523 33.5062 83.4118 32.62 84.4821 32.0081C85.5525 31.3962 86.723 31.085 87.9937 31.085C89.4068 31.085 90.4824 31.3329 91.2101 31.834C91.9377 32.3351 92.4702 32.8521 92.8024 33.3954H93.3666V31.5228H97.2367V49.7638C97.2367 50.8241 96.9256 51.6734 96.2982 52.3117C95.676 52.9447 94.8429 53.2664 93.7989 53.2664H83.4328V49.8324H92.4228C93.0028 49.8324 93.298 49.5212 93.298 48.8934V44.8633H92.7339C92.523 45.1957 92.233 45.5333 91.8586 45.8761C91.4842 46.219 90.9833 46.5039 90.3612 46.736C89.739 46.9628 88.9481 47.0788 87.9884 47.0788C86.7177 47.0788 85.5472 46.7729 84.4768 46.1557C83.4065 45.5438 82.547 44.6576 81.9038 43.5024C81.2605 42.3471 80.9336 40.9545 80.9336 39.3351L80.9389 39.3298ZM89.1168 43.6395C90.3242 43.6395 91.3313 43.2544 92.1433 42.4843C92.9553 41.7141 93.3613 40.6328 93.3613 39.2349V38.9237C93.3613 37.5099 92.9606 36.418 92.1591 35.6584C91.3577 34.8988 90.3453 34.519 89.1168 34.519C87.8883 34.519 86.9023 34.8988 86.0903 35.6584C85.2783 36.418 84.8723 37.5047 84.8723 38.9237V39.2349C84.8723 40.6275 85.2783 41.7141 86.0903 42.4843C86.9023 43.2544 87.9094 43.6395 89.1168 43.6395Z" fill="#142927"/>
<path d="M140.563 47.4475C139.024 47.4475 137.637 47.1363 136.408 46.5086C135.18 45.8861 134.21 44.9788 133.503 43.7919C132.797 42.605 132.443 41.1808 132.443 39.5139V39.0127C132.443 37.3458 132.797 35.9216 133.503 34.7347C134.21 33.5478 135.18 32.6405 136.408 32.0181C137.637 31.3956 139.018 31.0791 140.563 31.0791C142.108 31.0791 143.484 31.3903 144.713 32.0181C145.941 32.6458 146.906 33.5478 147.618 34.7347C148.325 35.9216 148.678 37.3458 148.678 39.0127V39.5139C148.678 41.1808 148.325 42.605 147.618 43.7919C146.912 44.9788 145.941 45.8861 144.713 46.5086C143.484 47.131 142.103 47.4475 140.563 47.4475ZM140.563 43.9502C141.771 43.9502 142.767 43.5598 143.558 42.7791C144.349 41.9984 144.745 40.8801 144.745 39.4242V39.113C144.745 37.6571 144.354 36.5388 143.574 35.7528C142.794 34.9721 141.792 34.5817 140.563 34.5817C139.335 34.5817 138.359 34.9721 137.568 35.7528C136.778 36.5335 136.382 37.6518 136.382 39.113V39.4242C136.382 40.8801 136.778 41.9984 137.568 42.7791C138.359 43.5598 139.356 43.9502 140.563 43.9502Z" fill="#142927"/>
<path d="M115.507 47.4475C113.967 47.4475 112.58 47.1363 111.352 46.5086C110.123 45.8861 109.153 44.9788 108.447 43.7919C107.74 42.605 107.387 41.1808 107.387 39.5139V39.0127C107.387 37.3458 107.74 35.9216 108.447 34.7347C109.153 33.5478 110.123 32.6405 111.352 32.0181C112.58 31.3956 113.962 31.0791 115.507 31.0791C117.052 31.0791 118.428 31.3903 119.656 32.0181C120.885 32.6458 121.85 33.5478 122.561 34.7347C123.268 35.9216 123.621 37.3458 123.621 39.0127V39.5139C123.621 41.1808 123.268 42.605 122.561 43.7919C121.855 44.9788 120.885 45.8861 119.656 46.5086C118.428 47.131 117.046 47.4475 115.507 47.4475ZM115.507 43.9502C116.714 43.9502 117.711 43.5598 118.502 42.7791C119.292 41.9984 119.688 40.8801 119.688 39.4242V39.113C119.688 37.6571 119.298 36.5388 118.517 35.7528C117.737 34.9721 116.735 34.5817 115.507 34.5817C114.278 34.5817 113.303 34.9721 112.512 35.7528C111.721 36.5335 111.325 37.6518 111.325 39.113V39.4242C111.325 40.8801 111.721 41.9984 112.512 42.7791C113.303 43.5598 114.299 43.9502 115.507 43.9502Z" fill="#142927"/>
<path d="M156.143 47.009L161.763 39.2019L156.206 31.5215H160.761L164.289 36.6752H164.853L168.38 31.5215H172.936L167.379 39.2019L172.999 47.009H168.38L164.853 41.792H164.289L160.761 47.009H156.143Z" fill="#142927"/>
<path d="M23.5158 8.63867H0.347656V31.8171H23.5158V8.63867Z" fill="#142927"/>
<mask id="mask0_367_380" style="mask-type:luminance" maskUnits="userSpaceOnUse" x="11" y="19" width="48" height="48">
<path d="M11.9336 19.9375V66.5846H58.2699V35.7046C58.2699 31.896 56.8938 28.214 54.3892 25.3444C51.3943 21.9104 47.0655 19.9428 42.5099 19.9428H11.9336V19.9375Z" fill="white"/>
</mask>
<g mask="url(#mask0_367_380)">
<path d="M4.71949 8.70704C5.55258 6.76055 6.69675 4.9776 8.17837 3.45839C8.82164 2.80428 9.776 1.69125 10.6513 1.39058C12.7814 0.6468 12.3702 3.55861 12.4071 4.75077C12.5072 8.15316 15.1014 10.796 18.0172 12.2097C22.0403 14.1561 26.6433 13.7711 30.9458 14.4621C34.874 15.0951 38.5068 16.8622 41.4701 19.5261C44.3912 22.1531 46.6162 25.5344 47.7973 29.2796C48.5038 31.511 48.8835 33.8267 49.3211 36.1214C49.7746 38.4898 50.4126 40.8003 51.0453 43.1266C51.6938 45.5215 52.3424 47.9163 52.9909 50.3112C53.6236 52.648 54.404 55.0007 54.8522 57.3797C55.3267 59.9223 54.5674 61.9321 52.6534 63.6253C51.0664 65.0232 49.1577 66.1363 47.3544 67.2282C45.0291 68.6366 42.6301 69.7127 40.0148 70.4618C37.4945 71.1844 34.9636 71.8386 32.4854 72.7089C27.6188 74.4233 22.9524 76.6599 18.5603 79.3607C18.0488 79.672 18.5181 80.479 19.0296 80.1678C23.4164 77.4723 28.0722 75.2304 32.9389 73.5371C37.6421 71.8966 42.5563 71.0789 46.9168 68.5733C48.836 67.4708 50.7816 66.2787 52.5374 64.9177C53.94 63.8311 55.2318 62.4965 55.7327 60.7452C56.3812 58.4664 55.5218 56.0715 54.926 53.8771C54.2142 51.2607 53.5076 48.639 52.7958 46.0226C52.0945 43.4325 51.3195 40.8531 50.7131 38.2419C50.1489 35.8154 49.8115 33.3414 49.2209 30.9255C48.2402 26.9112 46.342 23.2345 43.5053 20.2171C40.8268 17.3634 37.4049 15.1795 33.6296 14.0981C29.0213 12.7794 23.9964 13.5337 19.483 11.8351C17.2737 11.0017 15.0909 9.48774 14.0047 7.33553C13.3667 6.06425 13.3667 4.85627 13.3772 3.46894C13.3825 2.52998 13.2665 1.59103 12.5758 0.889451C11.052 -0.650857 9.22236 1.19013 8.06237 2.27678C6.27493 3.94897 4.87767 5.9904 3.91277 8.24284C3.68077 8.78616 4.48222 9.26619 4.71949 8.71231" fill="#DBD5CA"/>
<path d="M6.4859 8.95002C7.83044 7.33059 10.1768 8.06909 11.5477 9.26125C12.9766 10.5062 13.9098 12.21 15.344 13.4496C17.896 15.6599 21.2969 16.3403 24.5396 16.794C31.8739 17.8226 40.4683 19.2047 44.639 26.1624C46.3685 29.0479 46.9274 32.387 47.365 35.6733C47.9239 39.8459 48.7992 43.9709 49.9908 48.001C50.5972 50.053 51.2879 52.0839 52.0524 54.0779C52.759 55.9294 53.9084 58.3876 52.5428 60.2022C51.3933 61.7214 48.989 62.5601 47.3281 63.3777C45.4194 64.3167 43.4685 65.1818 41.4754 65.9309C39.2978 66.7485 37.078 67.392 34.816 67.909C32.533 68.4312 30.5241 69.1908 28.4677 70.3039C27.3815 70.8947 26.2901 71.4749 25.2039 72.0763C24.5027 72.4666 24.2127 72.7356 23.9543 73.4847C23.5378 74.7032 22.0878 75.083 20.9963 75.6211C19.8258 76.1961 18.6605 76.771 17.4953 77.346C16.9574 77.6098 17.4267 78.4168 17.9645 78.1531C18.9927 77.6467 20.0262 77.1403 21.0543 76.6286C22.014 76.1539 23.1581 75.7582 24.0123 75.1094C24.7083 74.5766 24.587 74.0122 25.0352 73.3739C25.6205 72.551 27.2445 72.0341 28.1355 71.5488C30.2446 70.3988 32.2746 69.4546 34.6315 68.9112C36.8987 68.389 39.1291 67.7877 41.3172 66.9859C43.3261 66.2526 45.2876 65.4034 47.2121 64.475C48.9732 63.6257 50.9715 62.8133 52.5006 61.5737C55.8277 58.8782 53.049 54.2678 51.9681 51.1344C50.4601 46.7403 49.3264 42.2091 48.5883 37.6198C48.003 33.9906 47.7235 30.3244 46.1207 26.959C42.6881 19.748 34.4153 17.1791 27.0757 16.2032C22.4252 15.5807 17.7325 15.0849 14.5373 11.2499C13.2771 9.74127 12.096 8.03217 10.1557 7.36751C8.64243 6.84529 6.8919 7.00881 5.82155 8.29592C5.44191 8.75484 6.09572 9.41422 6.48063 8.9553" fill="#DBD5CA"/>
<path d="M6.95946 12.3522C10.5765 8.57524 13.3921 13.8661 15.9336 16.0869C18.5277 18.3551 21.8179 19.7794 25.2451 20.1064C27.4175 20.3122 29.6109 20.0062 31.7832 20.2752C33.5127 20.4915 35.1947 21.0507 36.729 21.8789C39.745 23.5036 42.2232 26.1253 43.6573 29.2375C45.4553 33.141 45.0177 37.4982 45.8244 41.6286C46.6575 45.8908 48.524 49.9367 50.0847 53.9668C50.4749 54.9744 51.076 56.1401 50.9653 57.2479C50.8387 58.4664 49.9002 59.2208 48.9247 59.8485C47.1373 61.0037 45.1759 61.8794 43.2039 62.6706C39.0806 64.3217 34.8994 65.8304 30.7445 67.4023C26.1942 69.1273 21.6333 71.4114 16.6401 70.8206C14.4098 70.5568 12.1161 70.0187 10.0809 69.0481C8.12472 68.1092 5.4462 66.3262 5.45674 63.8944C5.45674 63.2931 4.52875 63.2931 4.52348 63.8944C4.50766 67.645 9.10544 69.908 12.1583 70.8364C14.3201 71.4905 16.6454 71.9072 18.9074 71.8808C21.2432 71.8492 23.4471 71.1423 25.6142 70.3353C30.3438 68.5681 35.0629 66.7588 39.7872 64.9705C41.8963 64.174 44.0159 63.3986 46.0617 62.4491C47.8017 61.642 49.9371 60.7083 51.1551 59.1522C52.4416 57.5064 51.7193 55.6812 51.0496 53.9352C50.1322 51.5509 49.1515 49.1929 48.2973 46.7875C47.4273 44.3452 46.6891 41.8818 46.3991 39.297C46.1408 36.9654 46.0828 34.6075 45.6082 32.3023C44.1213 25.0808 37.6306 19.4418 30.2331 19.2413C27.4175 19.1675 24.7231 19.3785 21.9971 18.4976C19.5875 17.7169 17.3677 16.3348 15.6119 14.5149C14.2305 13.0801 13.0283 11.2338 11.1618 10.3846C9.3058 9.54057 7.61854 10.3213 6.28983 11.7033C5.87329 12.1359 6.53237 12.7953 6.94891 12.3627" fill="#DBD5CA"/>
<path d="M6.62749 15.3589C10.2604 14.5307 13.5294 16.741 16.2818 18.8352C18.7863 20.7342 21.2381 22.5541 24.3753 23.2029C27.6022 23.8675 30.9767 23.6143 34.1193 24.7326C37.0931 25.7877 39.7241 27.8555 41.2637 30.6248C43.0195 33.7793 43.6259 37.4191 44.2533 40.927C44.5275 42.4567 44.7859 43.9918 45.155 45.5004C45.5715 47.2043 46.2675 48.6654 47.0795 50.2057C47.997 51.9518 48.1973 53.5659 47.6859 55.4755C47.4433 56.3722 47.1639 57.4062 46.7157 58.2238C46.1462 59.2577 45.0284 59.5847 43.9897 59.9698C40.4359 61.2833 36.8769 62.581 33.3231 63.8892C29.474 65.3029 25.5459 66.9751 21.4965 67.6872C19.4665 68.0459 17.2994 68.0353 15.2431 68.0986C13.1287 68.1619 11.0618 67.9984 9.12147 67.1017C8.57838 66.8537 8.10384 67.6555 8.6522 67.9087C11.9687 69.4385 15.4751 68.9796 19.0077 68.8477C23.0624 68.7 26.9326 67.2072 30.7131 65.8357C34.7098 64.385 38.6959 62.908 42.6874 61.4416C44.0794 60.9299 45.9564 60.5342 47.0215 59.4107C48.1288 58.2343 48.635 55.9766 48.8617 54.4363C49.0989 52.8011 48.7299 51.361 47.9759 49.9156C47.0373 48.1116 46.2939 46.4183 45.8668 44.419C45.0759 40.7265 44.6963 36.9232 43.4624 33.3362C42.3815 30.2028 40.6363 27.5126 37.884 25.6188C35.0525 23.6724 31.8625 23.0921 28.5039 22.7914C26.1575 22.5804 23.7848 22.3642 21.6388 21.3197C19.8672 20.4599 18.317 19.2202 16.7616 18.0386C13.7772 15.7756 10.292 13.576 6.38495 14.4727C5.79968 14.6046 6.0475 15.5066 6.63276 15.3695" fill="#DBD5CA"/>
<path d="M4.14445 20.3647C10.614 21.2931 16.6987 23.7037 22.8836 25.6872C25.947 26.6683 29.0421 27.5229 32.2162 28.0556C35.1584 28.5515 39.6402 29.2795 39.8405 33.0775C39.8722 33.6735 40.8054 33.6788 40.7738 33.0775C40.6261 30.2923 38.2851 28.5462 35.7858 27.8183C34.0195 27.3013 32.1635 27.1431 30.3602 26.7633C28.615 26.394 26.8855 25.9351 25.1772 25.4234C18.2647 23.3556 11.5684 20.4965 4.387 19.4626C3.80173 19.3782 3.54864 20.275 4.13918 20.3594" fill="#DBD5CA"/>
<path d="M7.31475 24.2045C13.0831 25.6868 18.9252 26.995 24.6355 28.6883C26.6286 29.2791 28.6111 29.949 30.5989 30.5662C32.3758 31.1148 34.7907 31.7267 35.9454 33.3145C36.2934 33.7945 37.1054 33.3303 36.7521 32.845C35.7292 31.4366 34.0051 30.7508 32.4127 30.1811C30.3616 29.4479 28.2473 28.9151 26.191 28.203C23.2646 27.1955 20.1959 26.5466 17.1958 25.7765C13.9847 24.9536 10.7736 24.1254 7.56257 23.3025C6.98257 23.1548 6.73476 24.0516 7.31475 24.1993" fill="#DBD5CA"/>
<path d="M7.30715 27.7709C14.3673 28.8892 21.3167 30.572 28.1026 32.8139C28.6721 33.0038 28.9199 32.1017 28.3504 31.9171C21.5645 29.6752 14.6151 27.9872 7.55497 26.8742C6.9697 26.7792 6.71661 27.6813 7.30715 27.7709Z" fill="#DBD5CA"/>
<path d="M60.446 49.2138C59.1121 42.5409 57.4143 35.8944 54.4721 29.7332C53.7181 28.1507 52.885 26.6104 51.9676 25.1228C51.145 23.7882 49.0518 21.3353 50.9183 20.0008C52.2418 19.0565 54.4299 18.9879 55.9695 18.835C57.9732 18.6398 59.982 18.6398 61.9857 18.7928C62.5815 18.8402 62.5815 17.9066 61.9857 17.8591C59.8239 17.6956 57.6621 17.7114 55.5055 17.9488C53.9554 18.1228 52.0941 18.2442 50.7074 19.0301C47.3645 20.9397 50.6916 24.7272 51.9201 26.8583C55.9168 33.8213 57.9837 41.6442 59.5497 49.4618C59.6657 50.0473 60.5673 49.7994 60.446 49.2138Z" fill="#DBD5CA"/>
<path d="M67.1216 46.867C64.1267 43.3802 63.6943 38.4797 61.2478 34.6553C60.1036 32.867 58.6906 31.274 57.1931 29.7811C56.3864 28.9741 55.4268 28.2408 54.736 27.3283C53.8555 26.1625 53.9821 24.7382 54.8679 23.6041C56.3073 21.7631 59.0596 22.2484 61.0791 21.5046C63.6469 20.5551 66.1461 19.9907 68.8721 19.6795C74.2766 19.0623 79.6758 19.69 84.6849 21.8739C87.2685 22.9975 89.6676 24.369 92.383 25.1708C95.2724 26.0201 98.204 26.7375 101.115 27.5129C101.695 27.6659 101.942 26.7691 101.362 26.6109C98.4519 25.8354 95.5202 25.118 92.6308 24.2687C89.8574 23.4511 87.4161 22.0163 84.7692 20.898C79.4807 18.6614 73.8653 18.097 68.1919 18.8249C66.8685 18.9937 65.5503 19.21 64.2427 19.479C62.9192 19.748 61.7329 20.2967 60.4622 20.7345C58.4322 21.4308 56.1228 20.9666 54.4882 22.6124C53.2122 23.8889 52.7324 25.9462 53.7237 27.5287C54.3301 28.4993 55.3108 29.2325 56.1175 30.0238C57.0666 30.9522 57.9946 31.907 58.8382 32.9303C60.7258 35.2092 61.9385 37.7517 62.9245 40.5211C63.8103 43.0162 64.712 45.4796 66.4625 47.5158C66.8527 47.9694 67.5118 47.3101 67.1216 46.8564" fill="#DBD5CA"/>
<path d="M32.5791 78.5535C33.9183 75.668 37.5987 75.0772 40.3879 74.4653C43.7783 73.7268 47.1475 73.0833 50.4324 71.9439C54.3131 70.5987 60.0761 70.0607 62.027 65.8407C62.2748 65.2973 61.4734 64.8279 61.2256 65.3712C60.1552 67.6922 57.6665 68.7208 55.3729 69.4752C52.8684 70.2981 50.3217 71.1051 47.796 71.8331C44.4901 72.7879 41.0734 73.2679 37.7463 74.133C35.3894 74.7502 32.8744 75.7366 31.7829 78.084C31.5298 78.6221 32.3365 79.0968 32.5896 78.5535" fill="#DBD5CA"/>
<path d="M109.777 69.5539C105.738 71.6112 100.645 70.7566 96.3526 70.0709C94.0642 69.7069 91.7706 69.1688 89.6932 68.1244C87.8741 67.2118 86.3186 65.8983 84.7105 64.664C83.213 63.5193 81.6365 62.4326 79.8174 61.8629C77.6609 61.1877 75.2776 61.1666 73.0473 60.9767C68.091 60.5547 63.1241 60.2435 58.152 60.5125C57.5562 60.5442 57.5509 61.4779 58.152 61.4462C62.1117 61.2299 66.0715 61.3829 70.026 61.6678C72.0349 61.8155 74.0491 61.9895 76.0527 62.1742C78.0405 62.3588 79.886 62.6858 81.6418 63.6881C84.4416 65.2864 86.6614 67.7288 89.5982 69.1108C92.6564 70.5509 96.0309 71.0204 99.358 71.4002C103.033 71.8169 106.85 72.0965 110.251 70.361C110.784 70.0867 110.315 69.2849 109.782 69.5539" fill="#DBD5CA"/>
<path d="M39.8563 33.4998C39.9986 35.4727 40.5522 37.3453 41.1217 39.2285C41.7597 41.3491 42.403 43.4696 43.041 45.5955C44.106 49.1244 46.4102 54.2148 43.563 57.4906C42.2131 59.0415 39.7719 59.3633 37.8948 59.896C35.8016 60.4921 33.7083 61.0882 31.6151 61.6896C27.5762 62.8395 23.4266 64.4326 19.2401 64.9284C14.7477 65.4665 10.1974 64.3482 6.39581 61.9164C5.88964 61.5946 5.42037 62.3964 5.92655 62.7182C9.29052 64.8704 13.2292 66.0362 17.2312 65.9887C21.6866 65.936 26.0524 64.2427 30.2916 63.0347C32.6116 62.3753 34.9263 61.7107 37.2463 61.0513C39.1866 60.4974 41.5013 60.1598 43.2044 59.0204C46.3627 56.9157 46.0675 52.722 45.1817 49.5148C44.4593 46.8984 43.6262 44.3084 42.8406 41.7078C42.0339 39.028 40.9846 36.3114 40.7842 33.4998C40.7421 32.9037 39.8088 32.8985 39.851 33.4998" fill="#DBD5CA"/>
<path d="M7.18671 58.8994C10.8354 61.2679 15.1801 61.9273 19.451 62.0961C21.734 62.1858 24.0593 62.2332 26.3213 61.8693C28.5569 61.5053 30.4603 60.5769 32.3901 59.448C33.3656 58.8783 34.341 58.2928 35.3903 57.8708C36.5766 57.396 37.8105 57.2378 39.0654 57.0373C40.8633 56.7472 42.8722 56.1828 43.8688 54.5C44.8495 52.8437 44.0902 51.0766 43.12 49.6154C41.9601 47.8641 41.0532 46.2605 40.5733 44.1874C39.6506 40.2469 39.7086 35.8054 36.661 32.7564C36.2392 32.3344 35.5801 32.9885 36.0019 33.4158C38.5275 35.9372 38.7595 39.6192 39.3659 42.9425C39.6559 44.5197 40.0303 46.0917 40.721 47.5423C41.4908 49.1512 43.0779 50.5385 43.3573 52.3426C43.7739 55.0381 40.6102 55.861 38.5908 56.167C36.5872 56.4729 34.8578 56.9688 33.0809 57.9657C31.3356 58.9416 29.68 60.0599 27.7344 60.6085C25.5567 61.2204 23.2684 61.2521 21.0222 61.2099C16.3981 61.1308 11.621 60.6718 7.64544 58.0976C7.13926 57.7706 6.67526 58.5776 7.17617 58.9047" fill="#DBD5CA"/>
<path d="M28.1053 32.8192C29.6924 33.3203 31.4377 33.7212 32.8191 34.6971C34.4905 35.8787 35.2287 37.8726 35.8878 39.7347C37.2271 43.5064 38.9354 47.1303 40.3379 50.8756C40.7018 51.8462 41.3767 53.4287 39.9003 53.7769C39.083 53.972 38.1287 53.6766 37.3009 53.6344C35.7771 53.5553 34.2744 54.2411 32.914 54.853C29.4657 56.4091 26.1702 58.8567 22.2474 58.9358C17.7287 59.0255 13.6371 56.4566 9.0973 56.5673C8.49621 56.5832 8.49621 57.5168 9.0973 57.501C13.6898 57.385 17.85 60.0383 22.4425 59.8642C26.5393 59.7113 29.9297 57.1792 33.552 55.5809C34.5011 55.1642 35.5873 54.6789 36.6365 54.5734C37.5698 54.4732 38.503 54.7686 39.4363 54.7422C40.7703 54.7105 42.0621 53.8507 41.8196 52.3737C41.6561 51.4084 41.1658 50.4272 40.8125 49.5199C40.359 48.3647 39.8792 47.22 39.3994 46.07C38.5136 43.9495 37.6225 41.8395 36.8527 39.6767C36.1462 37.6933 35.4027 35.5938 33.7207 34.217C32.2022 32.9721 30.188 32.4974 28.3531 31.9171C27.7784 31.7378 27.5359 32.6345 28.1053 32.8139" fill="#DBD5CA"/>
<path d="M9.9074 32.6873C9.56994 35.7204 11.6527 38.168 12.5648 40.9005C13.1659 42.7045 12.9234 44.3082 11.9743 45.954C10.9356 47.7527 9.71758 49.4619 8.57868 51.1973C8.2465 51.6985 9.05322 52.1679 9.38013 51.6668C10.5454 49.8891 11.8214 48.1378 12.8601 46.281C13.6774 44.8198 14.057 43.2795 13.7248 41.6232C13.1079 38.5425 10.4768 35.9683 10.8407 32.6873C10.9039 32.0912 9.97594 32.0965 9.9074 32.6873Z" fill="#DBD5CA"/>
<path d="M10.019 30.2663C11.1051 32.0545 12.1913 33.848 13.2722 35.6415C14.3373 37.4034 15.6818 39.1811 16.4305 41.1064C17.3427 43.4538 15.8506 45.0574 14.3426 46.6769C12.9084 48.2172 11.4742 49.7575 10.0401 51.2978C9.63406 51.7356 10.2879 52.4003 10.6991 51.9572C12.3126 50.227 13.9366 48.502 15.5395 46.7613C16.7944 45.395 17.9544 43.8547 17.6274 41.8924C17.2847 39.8457 15.782 37.9836 14.7327 36.2481C13.4304 34.1012 12.128 31.949 10.8257 29.8021C10.5146 29.2904 9.70788 29.7599 10.019 30.2715" fill="#DBD5CA"/>
<path d="M11.3475 29.9861C13.6411 31.1466 15.6921 32.7027 17.3794 34.6439C18.2441 35.6409 19.0614 36.7434 19.615 37.9461C20.3901 39.6394 20.253 41.2272 19.5148 42.8994C17.469 47.5203 13.9205 51.3658 9.57583 53.9189C9.05911 54.2248 9.52838 55.0266 10.0451 54.726C14.7431 51.9671 19.1141 47.4042 20.8172 42.1239C21.6977 39.3809 20.3163 36.8384 18.6448 34.7231C16.8047 32.3915 14.4636 30.5242 11.822 29.1843C11.2895 28.9153 10.8149 29.7171 11.3527 29.9914" fill="#DBD5CA"/>
<path d="M22.5415 44.1022C23.9229 40.5205 23.2322 36.3057 21.0862 33.1723C20.9544 33.4044 20.8173 33.6418 20.6855 33.8739C22.7418 33.9267 24.7191 34.4753 26.6805 35.0503C27.6243 35.3246 28.5734 35.62 29.4118 36.1422C30.4083 36.7646 31.1307 37.7036 31.8056 38.6478C32.8601 40.1248 33.8356 41.6704 34.6159 43.3162C35.4068 44.9831 36.6881 47.9371 35.6915 49.7254C34.985 50.9914 33.0552 51.7668 31.8689 52.5211C30.2765 53.5339 28.5523 54.3305 26.7544 54.9055C24.8984 55.4963 22.9633 55.8497 21.0177 55.9394C19.6046 56.0027 16.1246 56.335 16.0455 54.2672C16.0034 53.1647 17.137 52.2257 17.833 51.5031C18.4868 50.8331 19.0931 50.1316 19.652 49.3825C20.87 47.7631 21.8138 45.9801 22.5362 44.0917C22.7524 43.5325 21.8508 43.2898 21.6399 43.8437C20.7593 46.1542 19.4833 48.3011 17.8277 50.1421C16.7573 51.3343 14.8803 52.7163 15.0859 54.5362C15.281 56.24 17.0632 56.7201 18.5079 56.8361C20.7171 57.0155 22.9791 56.7886 25.1356 56.2981C27.3027 55.8075 29.4065 54.9951 31.3363 53.9085C32.1589 53.4443 32.9234 52.9009 33.7354 52.4156C34.5157 51.9462 35.3488 51.5083 35.9868 50.8437C37.3577 49.4036 36.9464 47.1723 36.4403 45.4421C35.8075 43.2898 34.695 41.2801 33.4665 39.4127C32.1641 37.4398 30.8301 35.5883 28.5682 34.681C26.1216 33.6998 23.3166 32.9877 20.6802 32.9191C20.3428 32.9086 20.0791 33.3253 20.2795 33.6207C22.2989 36.5747 22.9422 40.4572 21.6399 43.8332C21.4237 44.3923 22.3253 44.635 22.5362 44.0811" fill="#DBD5CA"/>
<path d="M26.8953 38.168C28.7461 40.1145 30.8288 41.755 31.994 44.2501C32.6426 45.6427 32.864 47.2199 32.0995 48.6126C31.472 49.752 30.3911 50.5907 29.3208 51.2817C27.8602 52.2259 23.0041 55.0112 21.8705 52.3895C21.2536 50.9652 22.4347 49.3985 23.1148 48.2222C23.853 46.9562 24.6755 45.706 25.2924 44.3714C25.8988 43.0632 26.057 41.7286 25.8408 40.3097C25.7195 39.5184 25.4243 38.7588 25.3135 37.9676C25.2134 37.2449 25.4981 36.8703 26.057 37.3504C26.3523 37.6036 26.6212 37.8884 26.9006 38.1575C27.333 38.5742 27.9921 37.9148 27.5597 37.4981C26.8321 36.8018 25.6879 35.3564 24.7072 36.5327C24.2854 37.0391 24.3012 37.688 24.4277 38.2999C24.6439 39.3232 24.9814 40.2886 25.013 41.3488C25.0815 43.4905 23.7528 45.2735 22.7194 47.0459C21.9232 48.4227 20.7421 49.9524 20.7843 51.6193C20.8159 53.0225 21.7228 54.0986 23.1148 54.3043C24.5385 54.5153 26.0253 53.9509 27.3119 53.397C30.0273 52.2312 33.4704 50.1001 33.5336 46.7716C33.6075 42.7995 30.0115 40.0828 27.5544 37.4981C27.1432 37.0602 26.4841 37.7196 26.8953 38.1575" fill="#DBD5CA"/>
<path d="M28.336 42.4617C28.937 43.0103 29.1427 43.8912 29.3852 44.6456C29.6963 45.6162 30.1076 46.5446 30.0918 47.589C30.0549 49.5988 28.1356 51.5981 26.0265 50.8596C25.4676 50.6644 25.5994 50.2688 25.7102 49.794C25.8156 49.3404 25.9422 48.8867 26.074 48.4383C26.3482 47.5099 26.654 46.5868 26.9071 45.6531C27.1391 44.7933 27.3394 43.9071 27.3711 43.0156C27.3869 42.5672 27.3605 42.1188 27.3711 41.6705C27.3816 41.3803 27.4712 41.0691 27.4712 40.7843C27.4712 40.6999 27.4818 40.7843 27.4712 40.7737C27.4607 40.7632 27.4132 40.8476 27.3131 40.8792C27.1865 40.9161 27.1022 40.8634 27.1022 40.8687C27.1022 40.8739 27.0442 40.7895 27.118 40.8898C27.2234 41.0269 27.3131 41.1219 27.4291 41.2907C27.7085 41.6916 27.9721 42.1241 28.336 42.4617C28.7789 42.8679 29.438 42.2085 28.995 41.8023C28.6312 41.4647 28.3887 41.0269 28.0987 40.626C27.8403 40.2673 27.4343 39.7556 26.9334 40.0299C26.3903 40.3253 26.4431 41.2801 26.4325 41.7918C26.422 42.3035 26.4536 42.8099 26.4114 43.3215C26.364 43.9071 26.2374 44.4873 26.0898 45.057C25.7945 46.2281 25.3991 47.3675 25.0722 48.5227C24.8085 49.4511 24.2391 50.849 25.2462 51.5137C26.1636 52.1203 27.5029 51.999 28.4678 51.577C29.575 51.0969 30.3818 50.1422 30.7719 49.0133C31.2623 47.5996 30.909 46.2017 30.4292 44.846C30.0654 43.8068 29.8439 42.5778 28.995 41.8023C28.5521 41.4014 27.8931 42.0555 28.336 42.4617Z" fill="#DBD5CA"/>
<path d="M28.1922 45.1527C28.1922 45.1527 28.2133 45.1949 28.2291 45.216C28.2291 45.2266 28.2028 45.1158 28.2186 45.2002C28.2344 45.274 28.2608 45.3479 28.2766 45.427C28.2871 45.4745 28.2924 45.5167 28.3029 45.5642C28.3029 45.5905 28.3188 45.6908 28.3082 45.6116C28.324 45.733 28.3346 45.8543 28.3451 45.9756C28.382 46.4557 28.3926 46.941 28.3768 47.421C28.3768 47.5265 28.3662 47.632 28.3609 47.7322C28.3609 47.785 28.3504 47.8377 28.3451 47.8852C28.3451 47.9221 28.324 48.0382 28.3399 47.9379C28.3293 48.0065 28.3188 48.0804 28.2977 48.1489C28.2924 48.1753 28.2766 48.207 28.2713 48.2386C28.266 48.3019 28.324 48.1384 28.2766 48.2122C28.071 48.5287 27.955 48.9085 27.7599 49.2303C27.7335 49.2778 27.7019 49.32 27.6755 49.3622C27.686 49.3464 27.723 49.3253 27.6966 49.3305C27.6755 49.3358 27.6386 49.3516 27.6966 49.3411C27.7177 49.3411 28.013 49.2567 28.0288 49.2883C28.0288 49.2778 27.9813 49.2725 27.9708 49.2725C27.9286 49.2567 27.8811 49.2567 27.839 49.2514C27.7493 49.2356 27.665 49.225 27.5753 49.2145C27.549 49.2145 27.3908 49.1881 27.4488 49.1987C27.396 49.1934 27.338 49.1828 27.2853 49.167C27.259 49.1617 27.2326 49.1459 27.2115 49.1459C27.1851 49.1354 27.1851 49.1406 27.222 49.1459C27.2853 49.167 27.338 49.2092 27.375 49.2778C27.396 49.3569 27.4171 49.436 27.4382 49.5152C27.433 49.436 27.396 49.6629 27.4277 49.5732C27.433 49.5521 27.4382 49.5257 27.4435 49.5046C27.4593 49.4413 27.4751 49.378 27.491 49.32C27.5384 49.1354 27.5911 48.956 27.6439 48.7714C27.7862 48.2914 27.9391 47.8113 28.0973 47.3313C28.2555 46.846 28.4242 46.366 28.6088 45.8912C28.6299 45.8385 28.6509 45.791 28.672 45.7382C28.7195 45.6169 28.672 45.7383 28.6984 45.675C28.7353 45.5958 28.7669 45.5167 28.8091 45.4376C28.8408 45.3795 28.8724 45.3215 28.904 45.2582C28.9146 45.2371 28.9409 45.216 28.9462 45.1949C28.9199 45.2688 28.8935 45.2582 28.8302 45.3057C29.0306 45.1527 29.136 44.9048 28.9989 44.6674C28.8829 44.4722 28.5613 44.3456 28.3609 44.4986C28.1131 44.6885 27.9919 44.9681 27.8706 45.2529C27.686 45.6855 27.5279 46.1233 27.375 46.5664C27.085 47.3999 26.8055 48.2439 26.5841 49.0932C26.5577 49.1987 26.5261 49.3094 26.5155 49.4202C26.4786 49.7631 26.7159 49.9741 27.0217 50.0532C27.164 50.0901 27.3117 50.106 27.454 50.1218C27.512 50.1271 27.57 50.1376 27.628 50.1429C27.628 50.1429 27.7124 50.1534 27.6544 50.1429C27.5964 50.1323 27.6966 50.1482 27.7071 50.1534C27.9655 50.2062 28.1659 50.1798 28.3557 49.9794C28.6668 49.6576 28.8302 49.1723 29.0253 48.7767C29.1888 48.4391 29.252 48.1278 29.2837 47.7533C29.3311 47.1783 29.3206 46.5981 29.2837 46.0231C29.252 45.6011 29.2468 45.0208 28.9989 44.6569C28.6615 44.1663 27.8548 44.6305 28.1922 45.1263" fill="#DBD5CA"/>
<path d="M8.81556 7.34005C9.38501 6.52242 10.0441 5.77864 10.8297 5.15619C11.4466 4.66561 12.111 4.22251 12.8703 4.57594C13.445 4.84496 13.7244 5.25114 14.1093 5.72062C15.1375 6.97607 16.345 8.06801 17.7053 8.94894C20.5156 10.7688 23.8585 11.6392 27.096 12.3144C30.5127 13.0265 34.0084 13.4591 37.3355 14.5668C41.0527 15.8065 43.9896 18.0167 45.8931 21.4771C47.9652 25.2435 49.2781 29.5321 50.6227 33.5991C51.9936 37.74 53.201 41.9337 54.2397 46.1695C55.289 50.4423 56.4015 54.8469 56.8866 59.2252C57.3664 63.6193 54.5824 67.0428 50.6438 68.657C48.5241 69.5273 46.278 69.8016 44.0318 70.1551C41.8015 70.5032 39.7662 71.1837 37.7468 72.1912C33.1806 74.4648 28.6936 76.9176 24.1696 79.2809C23.6371 79.5604 24.1063 80.3622 24.6389 80.0827C29.0363 77.7828 33.4179 75.4301 37.8417 73.1777C39.9877 72.0857 42.1126 71.3841 44.4853 71.0149C46.6629 70.6773 48.8247 70.3819 50.8863 69.5484C54.2081 68.2086 57.1977 65.513 57.7882 61.8311C58.1204 59.7738 57.5932 57.6374 57.2241 55.6171C56.8022 53.3225 56.333 51.0384 55.811 48.7701C54.7406 44.0753 53.4699 39.4333 52.0041 34.8493C50.6279 30.5502 49.2201 26.1402 47.2481 22.0732C45.5609 18.6022 43.0458 15.9489 39.492 14.3928C36.0384 12.8788 32.2632 12.3672 28.5881 11.6603C24.4069 10.8532 19.9567 9.83514 16.6402 6.9919C15.8124 6.27977 15.127 5.46742 14.431 4.63396C13.9406 4.04843 13.3975 3.51566 12.6013 3.44708C10.7032 3.28355 8.96847 5.48852 8.00884 6.86002C7.66612 7.3506 8.47284 7.82008 8.81556 7.3295" fill="#DBD5CA"/>
<path d="M5.70031 17.1737C10.6566 18.1759 15.518 19.6108 20.2318 21.457C20.7907 21.6786 21.0333 20.7765 20.4796 20.5603C15.7711 18.714 10.9097 17.2845 5.9534 16.2769C5.36814 16.1609 5.11505 17.0576 5.70559 17.1737" fill="#DBD5CA"/>
<path d="M45.1231 18.228C47.4852 20.4488 48.4818 23.5452 49.7261 26.4465C50.4485 28.1398 51.387 29.717 52.1832 31.3734C53.0321 33.1405 53.6068 35.0078 54.1921 36.8752C55.3046 40.4464 56.6386 44.0281 57.2661 47.7259C57.9357 51.698 58.3048 55.7334 58.8004 59.7319C58.8742 60.3174 59.8075 60.328 59.7337 59.7319C59.238 55.7282 58.8584 51.6928 58.2046 47.7101C57.5613 43.7802 56.143 39.9875 54.9566 36.1947C54.3924 34.3959 53.8124 32.6024 52.9899 30.9039C52.1937 29.2475 51.2552 27.6703 50.5328 25.977C49.2568 22.9913 48.2129 19.8474 45.7874 17.5686C45.3498 17.1572 44.6907 17.8165 45.1283 18.228" fill="#DBD5CA"/>
</g>
</svg>
